# xmcd
#
# Track frame offsets:
#	150
#	14493
#	29631
#	42537
#	56206
#	70800
#	84545
#	98837
#	110984
#	124865
#	137702
#	150940
#	163819
#	177813
#	191299
#	202702
#	217068
#	230784
#	243388
#	258306
#
# Disc length: 3600 seconds
#
# Revision: 2
# Processed by: cddbd v1.5.2PL0 Copyright (c) Steve Scherf et al.
# Submitted via: audiograbber 1.83.01
#
DISCID=230e0e14
DTITLE=Various Artist - Country and Western Original Masters - CD 1
DYEAR=2005
DGENRE=Country
TTITLE0=Jimmie Rodgers - Lullaby Yodel (1928)
TTITLE1=John Hurt - Frankie And Johnny (1928)
TTITLE2=Henry Thomas - Old Country Stomp (1928)
TTITLE3=Jimmie Rodgers - My Little Old Home (1928)
TTITLE4=Sam McGee - Railroad Blues (1928)
TTITLE5=Buell Kazee - My Butcher's Boy (1928)
TTITLE6=The Carter Family - Wildwood Flower (1928)
TTITLE7=Jules Verne Allen - The Days Of '49 (1928)
TTITLE8=Jimmie Rodgers - Treasures Untold (1928)
TTITLE9=The Pickard Family - Get Awy From That Window (1928)
TTITLE10=Jimmie Rodgers - High Powered Mama (1929)
TTITLE11=Nelstone's Hawaiians - Just Because (1929)
TTITLE12=Grayson and Whitter - Tom Dooley (1929)
TTITLE13=Carolina Tar Hells - Peg And Awl (1929)
TTITLE14=Jimmie Rodgers - Blue Yodel No. 5 (1929)
TTITLE15=Dick Justice - Brownsin' Blues (1929)
TTITLE16=Jimmie Taylor  - Slow Wicked Blues (1929)
TTITLE17=Jimmie Rodgers - Jimmie's Texas Blues (1929)
TTITLE18=Jules Verne Allen - The Dying Cowboy (1929)
TTITLE19=Jimmie Rodgers - Hobo Bill's Last Ride (1929)
EXTD=
EXTT0=
EXTT1=
EXTT2=
EXTT3=
EXTT4=
EXTT5=
EXTT6=
EXTT7=
EXTT8=
EXTT9=
EXTT10=
EXTT11=
EXTT12=
EXTT13=
EXTT14=
EXTT15=
EXTT16=
EXTT17=
EXTT18=
EXTT19=
PLAYORDER=
